<?xml version="1.0" standalone="no"?>
<!DOCTYPE svg PUBLIC "-//W3C//DTD SVG 20010904//EN"
 "http://www.w3.org/TR/2001/REC-SVG-20010904/DTD/svg10.dtd">
<svg version="1.0" xmlns="http://www.w3.org/2000/svg"
 width="3600.000000pt" height="2400.000000pt" viewBox="0 0 3600.000000 2400.000000"
 preserveAspectRatio="xMidYMid meet">

<g transform="translate(0.000000,2400.000000) scale(0.100000,-0.100000)"
fill="#000000" stroke="none">
<path d="M130 23900 l0 -30 4805 0 4805 0 2 -992 3 -993 8440 0 8440 0 3 993
2 992 4685 0 4685 0 0 30 0 30 -17935 0 -17935 0 0 -30z m17317 -722 c38 -17
43 -26 43 -75 0 -49 -6 -51 -79 -27 -53 17 -101 7 -101 -21 0 -23 16 -36 94
-75 83 -42 116 -84 116 -150 0 -88 -55 -151 -145 -164 -61 -10 -146 2 -172 22
-36 28 -39 112 -4 112 9 0 40 -9 70 -21 45 -17 59 -18 82 -8 35 14 47 46 25
67 -8 9 -46 32 -83 51 -42 22 -76 49 -90 70 -49 73 -16 179 67 218 33 16 142
16 177 1z m457 6 c12 -4 16 -20 16 -55 l0 -48 -67 -3 -68 -3 -2 -185 c-1 -102
-2 -193 -2 -203 -1 -16 -9 -18 -58 -15 l-58 3 -3 203 -2 202 -64 0 c-68 0 -76
6 -76 55 0 50 18 55 200 55 93 0 175 -3 184 -6z m239 -11 c8 -10 27 -54 42
-98 14 -44 30 -89 35 -100 5 -11 23 -63 40 -115 17 -52 35 -103 40 -112 6 -10
10 -32 10 -48 l0 -31 -62 3 -62 3 -17 50 -17 50 -83 0 -82 0 -17 -50 -17 -50
-56 -3 c-63 -3 -81 13 -59 49 7 10 12 26 12 34 0 8 4 23 10 33 5 9 21 51 34
92 14 41 41 119 60 174 20 54 36 100 36 101 0 2 7 11 16 19 22 23 116 22 137
-1z m541 3 c22 -7 45 -22 53 -32 22 -30 14 -104 -11 -104 -7 0 -31 9 -54 20
-26 13 -61 20 -98 20 -53 0 -60 -3 -94 -39 -87 -91 -47 -250 65 -267 62 -9 82
5 77 55 -4 40 -4 40 -50 43 -41 3 -48 6 -56 31 -18 52 -2 62 110 65 124 4 124
4 124 -132 0 -133 -3 -140 -53 -157 -56 -18 -223 -17 -257 2 -94 52 -140 131
-140 241 0 54 4 69 37 145 16 37 89 103 114 103 10 0 21 5 24 10 9 15 164 12
209 -4z m443 -18 c10 -18 10 -34 3 -52 -9 -25 -12 -26 -95 -26 l-85 0 0 -45 0
-45 68 0 c77 0 92 -9 92 -57 0 -43 -25 -56 -101 -51 l-59 3 0 -57 0 -57 88 -3
87 -3 3 -47 3 -48 -149 0 c-127 0 -151 2 -156 16 -3 9 -6 117 -6 242 0 197 2
228 17 244 15 17 31 18 147 16 131 -3 131 -3 143 -30z"/>
<path d="M18043 22956 c-11 -36 -18 -67 -15 -70 7 -7 77 -8 84 -1 6 6 -35 135
-42 135 -3 0 -15 -29 -27 -64z"/>
<path d="M6884 18058 c-3 -5 -12 -39 -20 -76 -16 -75 -16 -76 57 -91 144 -31
344 -121 467 -208 40 -29 77 -53 81 -53 15 0 93 111 87 125 -9 25 -150 117
-271 175 -154 75 -388 150 -401 128z"/>
<path d="M17960 17976 c-5 -13 -14 -52 -20 -87 -12 -66 -7 -79 34 -79 11 0 33
-4 50 -9 221 -69 353 -130 506 -234 l94 -65 51 65 c27 36 50 71 50 77 0 19
-155 123 -275 185 -133 68 -223 105 -335 136 -133 38 -144 38 -155 11z"/>
<path d="M29257 17992 c-2 -4 -9 -27 -15 -52 -26 -108 -22 -130 25 -130 40 0
256 -76 353 -125 52 -26 135 -75 184 -109 50 -33 95 -64 101 -68 7 -4 33 22
64 63 43 56 51 72 41 84 -46 55 -350 226 -485 273 -135 46 -261 77 -268 64z"/>
<path d="M6387 17814 c-422 -65 -770 -317 -956 -690 -52 -104 -82 -186 -100
-269 -6 -27 -15 -71 -21 -97 -5 -26 -10 -117 -10 -203 0 -86 5 -177 10 -203
27 -124 34 -151 52 -207 30 -93 115 -257 176 -337 217 -290 515 -465 879 -518
176 -25 401 0 584 66 321 115 581 350 726 654 86 179 123 343 123 546 0 199
-37 365 -123 544 -240 504 -794 799 -1340 714z m419 -99 c344 -72 650 -296
811 -595 190 -356 190 -774 0 -1130 -132 -245 -401 -472 -657 -553 -160 -51
-223 -60 -385 -60 -214 0 -365 36 -550 131 -431 222 -687 699 -630 1172 8 63
21 142 30 175 121 462 535 821 1010 876 92 10 284 2 371 -16z"/>
<path d="M17455 17724 c-186 -26 -366 -82 -505 -158 -436 -236 -709 -649 -761
-1152 -32 -313 58 -654 249 -939 79 -117 231 -274 348 -357 275 -196 650 -296
974 -259 343 39 628 176 865 415 166 167 276 342 344 546 27 81 34 105 63 230
17 74 17 407 0 480 -41 174 -59 234 -95 320 -134 315 -361 563 -657 718 -209
109 -379 152 -625 157 -93 2 -183 1 -200 -1z m412 -118 c262 -53 500 -181 688
-370 155 -156 257 -321 323 -521 50 -154 66 -252 66 -425 0 -174 -16 -275 -66
-425 -128 -382 -432 -694 -808 -829 -186 -67 -391 -95 -562 -77 -320 34 -588
156 -806 365 -495 475 -554 1242 -136 1786 56 75 168 187 242 244 179 137 437
241 672 270 65 8 315 -4 387 -18z"/>
<path d="M28745 17724 c-175 -25 -297 -61 -451 -133 -330 -157 -585 -433 -724
-785 -73 -186 -110 -439 -90 -627 34 -333 138 -581 347 -830 289 -345 777
-541 1223 -490 344 39 625 174 866 415 207 207 330 434 396 729 19 87 23 131
23 292 -1 118 -5 211 -13 245 -38 163 -46 189 -88 295 -125 313 -363 576 -664
733 -208 109 -379 152 -625 157 -93 2 -183 1 -200 -1z m414 -119 c399 -80 737
-334 930 -698 115 -219 168 -498 142 -747 -18 -174 -53 -295 -136 -465 -172
-357 -520 -629 -907 -710 -212 -44 -393 -41 -599 10 -496 123 -871 516 -986
1030 -25 113 -25 429 0 532 73 305 199 526 412 724 194 181 475 308 755 343
66 8 315 -4 389 -19z"/>
<path d="M5358 17513 c-64 -75 -168 -259 -223 -398 -27 -68 -75 -228 -75 -251
0 -13 142 -46 152 -35 5 4 17 40 27 81 41 154 123 329 212 451 27 37 49 70 48
75 -1 11 -105 94 -117 94 -5 0 -16 -8 -24 -17z"/>
<path d="M16209 17310 c-90 -128 -184 -313 -233 -460 -24 -73 -57 -212 -52
-217 3 -3 40 -14 83 -24 90 -21 96 -18 109 54 23 138 117 349 229 516 l74 111
-69 55 c-38 30 -71 55 -73 55 -3 0 -33 -40 -68 -90z"/>
<path d="M27564 17392 c-29 -21 -148 -201 -186 -282 -57 -122 -87 -191 -101
-230 -28 -83 -69 -242 -63 -247 11 -11 161 -41 169 -34 4 4 19 50 33 101 54
198 142 382 253 529 29 38 38 58 31 66 -25 30 -127 103 -136 97z"/>
<path d="M7946 16258 c-71 -257 -130 -391 -238 -534 -21 -28 -38 -56 -38 -62
0 -6 25 -32 56 -57 67 -54 62 -57 147 69 107 160 234 466 225 543 -3 25 -9 28
-63 40 -77 16 -85 16 -89 1z"/>
<path d="M19156 15958 c-2 -7 -10 -35 -16 -63 -41 -168 -131 -368 -233 -517
-37 -54 -67 -100 -67 -102 0 -8 128 -106 137 -106 20 0 130 169 198 304 83
165 155 369 155 441 0 20 -6 25 -37 30 -21 4 -51 11 -67 16 -40 13 -66 11 -70
-3z"/>
<path d="M30445 15958 c-2 -7 -11 -44 -20 -83 -42 -175 -145 -391 -257 -541
-21 -28 -38 -53 -38 -57 0 -8 126 -107 138 -107 18 0 131 171 190 288 70 138
114 248 142 354 29 114 28 126 -17 133 -21 4 -51 11 -67 16 -40 13 -66 11 -71
-3z"/>
<path d="M5643 15405 c-24 -29 -41 -60 -38 -67 9 -21 182 -130 290 -182 104
-51 270 -108 343 -120 49 -7 55 1 67 96 l7 56 -52 11 c-59 13 -188 54 -237 76
-91 41 -114 53 -188 98 -44 27 -89 57 -101 68 -31 29 -45 23 -91 -36z"/>
<path d="M16581 14998 c-28 -35 -50 -68 -51 -75 0 -6 30 -33 68 -60 167 -123
368 -218 574 -273 125 -32 122 -33 138 60 7 44 13 83 12 87 0 4 -32 15 -69 24
-207 51 -427 154 -574 270 -20 16 -39 29 -43 29 -3 0 -28 -28 -55 -62z"/>
<path d="M27871 14995 c-28 -35 -51 -69 -51 -74 0 -22 203 -154 320 -209 164
-76 193 -87 322 -121 125 -34 122 -35 141 62 8 45 13 85 9 88 -4 3 -32 11 -62
18 -192 45 -406 143 -563 260 -31 22 -58 41 -61 41 -2 0 -27 -29 -55 -65z"/>
<path d="M12356 13339 c-14 -44 -32 -149 -27 -157 3 -5 30 -14 58 -21 166 -35
397 -138 541 -241 46 -33 86 -60 90 -60 14 1 103 132 98 145 -7 20 -197 144
-291 191 -142 71 -318 133 -422 150 -32 5 -44 3 -47 -7z"/>
<path d="M23606 13339 c-14 -44 -32 -149 -27 -157 3 -5 30 -14 58 -21 166 -35
397 -138 541 -241 46 -33 86 -60 90 -60 14 1 103 132 98 145 -7 20 -197 144
-291 191 -142 71 -318 133 -422 150 -32 5 -44 3 -47 -7z"/>
<path d="M11880 13080 c-558 -51 -1044 -437 -1224 -973 -85 -255 -99 -561 -36
-799 23 -85 28 -105 45 -153 67 -195 239 -450 393 -584 219 -188 453 -299 732
-346 99 -17 345 -20 422 -5 29 6 78 15 108 21 148 29 345 113 495 213 116 77
303 263 377 376 113 170 183 336 224 530 31 145 35 381 9 530 -56 326 -237
646 -484 853 -299 252 -676 372 -1061 337z m355 -115 c359 -65 676 -269 873
-561 161 -240 232 -472 232 -759 0 -170 -19 -289 -70 -435 -187 -539 -692
-900 -1260 -900 -211 0 -422 53 -610 152 -261 138 -462 347 -588 610 -229 479
-147 1065 204 1459 215 240 451 371 794 438 74 15 337 12 425 -4z"/>
<path d="M23130 13080 c-558 -51 -1044 -437 -1224 -973 -85 -255 -99 -561 -36
-799 23 -85 28 -105 45 -153 67 -195 239 -450 393 -584 219 -188 453 -299 732
-346 99 -17 345 -20 422 -5 29 6 78 15 108 21 148 29 345 113 495 213 116 77
303 263 377 376 113 170 183 336 224 530 31 145 35 381 9 530 -56 326 -237
646 -484 853 -299 252 -676 372 -1061 337z m355 -115 c359 -65 676 -269 873
-561 161 -240 232 -472 232 -759 0 -170 -19 -289 -70 -435 -187 -539 -692
-900 -1260 -900 -211 0 -422 53 -610 152 -261 138 -462 347 -588 610 -229 479
-147 1065 204 1459 215 240 451 371 794 438 74 15 337 12 425 -4z"/>
<path d="M10605 12665 c-118 -167 -215 -378 -266 -575 -28 -110 -30 -105 61
-124 44 -10 83 -15 88 -12 5 3 17 38 26 78 45 190 145 401 260 553 20 25 36
51 36 56 0 10 -121 108 -135 109 -5 0 -37 -38 -70 -85z"/>
<path d="M21855 12665 c-118 -167 -215 -378 -266 -575 -28 -110 -30 -105 61
-124 44 -10 83 -15 88 -12 5 3 17 38 26 78 45 190 145 401 260 553 20 25 36
51 36 56 0 10 -121 108 -135 109 -5 0 -37 -38 -70 -85z"/>
<path d="M13555 11313 c-8 -8 -15 -25 -15 -38 0 -38 -76 -256 -121 -346 -40
-78 -104 -182 -158 -256 -13 -17 -22 -36 -20 -42 7 -21 124 -109 135 -103 16
10 72 84 122 165 52 83 130 245 167 347 30 86 69 240 61 247 -3 3 -39 13 -81
23 -66 15 -78 16 -90 3z"/>
<path d="M24805 11313 c-8 -8 -15 -25 -15 -38 0 -38 -76 -256 -121 -346 -40
-78 -104 -182 -158 -256 -13 -17 -22 -36 -20 -42 7 -21 124 -109 135 -103 16
10 72 84 122 165 52 83 130 245 167 347 30 86 69 240 61 247 -3 3 -39 13 -81
23 -66 15 -78 16 -90 3z"/>
<path d="M10969 10343 l-52 -66 29 -24 c160 -132 448 -268 682 -323 29 -7 56
-10 59 -6 6 5 12 36 29 137 l6 36 -73 18 c-182 44 -405 145 -540 246 -37 27
-71 49 -77 49 -6 0 -34 -30 -63 -67z"/>
<path d="M22219 10343 l-52 -66 29 -24 c160 -132 448 -268 682 -323 29 -7 56
-10 59 -6 6 5 12 36 29 137 l6 36 -73 18 c-182 44 -405 145 -540 246 -37 27
-71 49 -77 49 -6 0 -34 -30 -63 -67z"/>
<path d="M6661 8538 c-6 -29 -13 -68 -14 -87 -2 -32 1 -35 33 -44 254 -66 472
-167 613 -284 16 -13 32 -23 35 -23 8 0 112 134 112 143 0 3 -48 38 -107 77
-171 115 -374 205 -569 255 -89 22 -89 22 -103 -37z"/>
<path d="M17951 8533 c-22 -106 -21 -116 19 -126 224 -59 395 -133 552 -239
51 -35 96 -63 100 -63 8 0 108 125 108 135 0 5 -48 41 -106 80 -163 111 -373
205 -570 255 -90 22 -90 22 -103 -42z"/>
<path d="M6145 8315 c-330 -46 -602 -180 -830 -409 -166 -166 -279 -347 -350
-561 -42 -126 -75 -322 -75 -445 0 -123 33 -319 75 -445 131 -392 433 -718
809 -871 105 -43 224 -78 326 -95 93 -16 374 -16 455 0 241 47 440 131 615
257 205 147 395 392 488 629 74 189 97 313 96 525 0 308 -69 534 -242 800 -71
108 -269 307 -377 379 -299 197 -656 282 -990 236z m325 -100 c183 -23 278
-51 439 -126 185 -87 395 -265 509 -431 110 -161 171 -309 223 -547 16 -73 16
-338 0 -426 -62 -337 -245 -640 -509 -839 -131 -100 -352 -204 -497 -235 -27
-6 -71 -15 -97 -21 -70 -15 -349 -12 -443 5 -421 76 -789 353 -964 727 -156
331 -178 651 -69 983 164 500 582 843 1108 910 141 17 167 17 300 0z"/>
<path d="M17435 8315 c-314 -44 -582 -171 -809 -385 -306 -288 -478 -740 -437
-1143 35 -345 160 -625 386 -865 211 -224 480 -369 795 -429 103 -19 386 -22
475 -4 314 62 563 187 766 384 172 167 294 361 367 582 19 57 25 80 54 205 8
34 12 126 12 240 0 114 -4 206 -12 240 -37 158 -45 187 -82 280 -98 250 -261
461 -489 632 -129 98 -374 209 -526 239 -197 39 -340 46 -500 24z m300 -95
c187 -22 296 -52 463 -131 248 -117 467 -328 599 -579 104 -198 147 -376 147
-610 0 -280 -71 -515 -227 -744 -186 -272 -487 -479 -792 -545 -27 -6 -71 -15
-97 -21 -84 -18 -354 -12 -467 10 -350 70 -646 266 -845 558 -376 553 -278
1301 229 1742 198 172 448 282 720 315 130 16 162 17 270 5z"/>
<path d="M4915 7905 c-70 -99 -148 -245 -199 -372 -45 -114 -91 -282 -79 -294
8 -8 132 -38 159 -39 7 0 20 33 29 73 42 171 147 402 241 526 30 40 54 78 54
85 0 16 -113 106 -132 106 -7 0 -40 -38 -73 -85z"/>
<path d="M16227 7933 c-83 -109 -162 -254 -228 -420 -38 -97 -82 -264 -71
-275 8 -8 132 -37 159 -38 6 0 17 24 23 53 50 211 141 400 295 613 15 21 13
24 -48 73 -36 28 -70 51 -75 51 -6 0 -31 -26 -55 -57z"/>
<path d="M29242 7923 c-27 -120 -31 -113 81 -144 188 -51 340 -120 494 -226
51 -35 95 -63 97 -63 6 0 106 132 106 140 0 18 -213 151 -332 208 -119 58
-303 122 -393 136 l-41 7 -12 -58z"/>
<path d="M28740 7705 c-258 -35 -445 -106 -655 -249 -404 -275 -652 -799 -605
-1279 37 -378 186 -684 456 -936 197 -184 436 -301 739 -363 92 -18 393 -15
490 6 311 66 549 191 754 396 213 213 344 463 403 765 17 91 17 410 0 485 -30
127 -35 148 -54 205 -122 371 -403 685 -760 849 -148 69 -248 96 -438 121
-135 17 -200 17 -330 0z m315 -101 c134 -11 327 -69 468 -140 164 -83 371
-264 473 -414 150 -219 225 -437 240 -693 13 -231 -31 -438 -141 -662 -178
-361 -516 -619 -927 -706 -130 -27 -370 -30 -493 -6 -292 58 -518 179 -722
386 -176 179 -304 423 -354 676 -21 103 -18 408 4 508 58 263 176 478 366 668
173 173 353 278 596 348 94 27 297 52 375 45 25 -2 77 -6 115 -10z"/>
<path d="M27521 7327 c-81 -110 -131 -197 -199 -347 -56 -125 -119 -337 -104
-352 11 -11 161 -43 168 -36 3 3 14 41 25 85 40 163 116 329 219 483 33 49 64
91 70 95 5 3 10 10 10 15 0 11 -125 110 -139 110 -6 0 -28 -24 -50 -53z"/>
<path d="M7865 6568 c-2 -7 -13 -49 -25 -93 -50 -190 -157 -406 -269 -545 -11
-14 -21 -29 -21 -35 0 -11 123 -105 137 -105 9 0 56 60 113 143 87 130 220
449 236 570 l7 46 -39 6 c-22 4 -52 11 -68 16 -40 13 -66 11 -71 -3z"/>
<path d="M19156 6568 c-2 -7 -14 -51 -27 -98 -47 -176 -139 -367 -241 -504
l-52 -69 50 -43 c27 -24 60 -49 72 -56 28 -15 31 -12 124 127 97 145 178 325
228 505 31 116 32 115 -51 134 -86 19 -99 20 -103 4z"/>
<path d="M30445 5958 c-2 -7 -9 -38 -16 -68 -39 -178 -178 -462 -283 -578
l-21 -24 50 -44 c28 -23 61 -49 74 -56 21 -11 25 -10 47 17 124 153 249 403
304 608 30 112 28 125 -17 132 -21 4 -54 11 -73 16 -47 12 -60 11 -65 -3z"/>
<path d="M5292 5619 c-26 -34 -47 -69 -47 -78 0 -31 224 -169 406 -250 114
-50 334 -111 348 -95 10 12 31 108 31 143 0 27 -4 29 -72 46 -128 30 -248 75
-368 138 -80 43 -215 130 -225 147 -12 19 -25 10 -73 -51z"/>
<path d="M16614 5658 c-52 -61 -85 -110 -81 -122 13 -33 237 -168 408 -245
105 -47 333 -110 347 -97 11 12 40 153 33 164 -3 5 -37 18 -76 27 -128 31
-247 76 -365 138 -80 43 -215 130 -225 147 -9 15 -20 12 -41 -12z"/>
<path d="M27871 5004 c-29 -36 -50 -71 -47 -79 17 -44 340 -225 506 -283 108
-38 239 -67 250 -56 12 13 38 151 31 162 -3 5 -30 14 -58 21 -88 18 -228 68
-325 115 -92 44 -269 154 -282 175 -12 19 -21 13 -75 -55z"/>
<path d="M25231 985 c-45 -16 -96 -58 -114 -94 -29 -59 -41 -153 -28 -222 27
-139 80 -181 228 -181 58 0 98 5 114 13 43 25 90 73 105 109 20 48 21 223 0
270 -20 48 -73 94 -122 108 -51 15 -138 13 -183 -3z m163 -104 c33 -29 47 -71
47 -136 0 -78 -20 -129 -63 -155 -40 -24 -69 -25 -109 -5 -49 26 -69 70 -69
150 0 93 29 145 95 167 28 9 76 -1 99 -21z"/>
<path d="M25767 986 c-84 -26 -125 -80 -148 -195 -18 -91 12 -212 63 -256 46
-40 69 -47 162 -47 99 -1 133 10 181 58 45 45 57 89 58 204 0 115 -16 161 -71
204 -56 45 -161 58 -245 32z m164 -113 c67 -63 63 -203 -8 -270 -58 -55 -146
-34 -178 43 -19 46 -20 146 -1 182 42 81 127 102 187 45z"/>
<path d="M24652 978 c-9 -12 -12 -73 -10 -249 l3 -234 95 -3 c130 -5 193 11
246 63 110 105 88 337 -38 404 -56 30 -275 44 -296 19z m224 -100 c47 -32 59
-61 59 -142 -1 -105 -44 -153 -142 -159 l-38 -2 -3 163 -2 162 47 0 c32 0 57
-7 79 -22z"/>
<path d="M26162 978 c-9 -12 -12 -74 -10 -249 l3 -234 50 0 50 0 3 93 c2 72 6
94 18 99 29 11 62 -19 89 -81 14 -33 31 -73 38 -88 11 -26 17 -28 66 -28 l54
0 -6 33 c-5 32 -55 146 -79 179 -11 15 -8 22 20 49 30 29 32 36 32 98 -1 110
-32 132 -200 139 -95 4 -118 2 -128 -10z m207 -102 c39 -42 2 -98 -66 -100
l-38 -1 -3 49 c-4 67 1 76 46 76 28 0 45 -7 61 -24z"/>
<path d="M8931 965 c-52 -19 -101 -64 -124 -114 -32 -70 -30 -218 3 -284 37
-74 87 -99 199 -100 98 -1 138 13 183 60 44 47 58 95 58 202 -1 143 -37 204
-141 239 -44 15 -133 14 -178 -3z m156 -101 c51 -33 71 -171 35 -243 -44 -88
-155 -93 -202 -10 -25 46 -28 160 -5 206 33 67 110 88 172 47z"/>
<path d="M9441 965 c-112 -40 -169 -166 -142 -313 26 -140 78 -184 221 -185
120 -1 179 30 224 120 21 42 22 225 2 274 -41 96 -188 147 -305 104z m134 -89
c52 -22 75 -68 75 -149 0 -83 -19 -130 -62 -157 -42 -26 -82 -25 -119 1 -44
31 -59 69 -59 149 0 91 29 140 95 162 30 9 33 9 70 -6z"/>
<path d="M8352 962 c-9 -6 -12 -63 -10 -248 l3 -239 100 -3 c210 -6 293 56
303 229 7 121 -29 199 -110 240 -33 17 -66 22 -157 26 -64 2 -122 0 -129 -5z
m238 -117 c36 -34 47 -72 44 -142 -4 -87 -28 -116 -117 -143 -67 -21 -67 -20
-67 161 l0 161 55 -4 c44 -4 62 -11 85 -33z"/>
<path d="M9841 956 c-8 -9 -11 -83 -9 -247 l3 -234 50 0 50 0 3 98 c3 95 3 97
27 97 31 0 62 -41 96 -128 l27 -67 53 0 c53 0 54 0 52 29 -2 33 -39 119 -73
173 -13 21 -12 25 18 56 29 30 32 38 32 96 0 59 -2 66 -34 96 -26 25 -46 33
-88 38 -94 12 -195 8 -207 -7z m201 -93 c45 -40 -1 -117 -66 -111 -31 3 -31 4
-34 66 l-3 62 42 0 c25 0 50 -7 61 -17z"/>
</g>
</svg>
